<svg xmlns="http://www.w3.org/2000/svg" viewBox="0 0 300 420" width="300" height="420">
<!-- Lotería Mexicana - ilustración propia. Copyright (C) 2026 Ismael A. Acevedo Rendón.
     Licencia: GNU GPL v3 o posterior. https://www.gnu.org/licenses/gpl-3.0.html -->
<rect width="300" height="420" rx="14" fill="#f6e7c8"/>
<rect x="8" y="8" width="284" height="404" rx="10" fill="none" stroke="#ce1126" stroke-width="4"/>
<rect x="16" y="16" width="268" height="388" rx="8" fill="none" stroke="#006847" stroke-width="1.5"/>
<g fill="#006847"><circle cx="24" cy="24" r="5"/><circle cx="276" cy="24" r="5"/></g>
<g fill="#ce1126"><circle cx="24" cy="396" r="5"/><circle cx="276" cy="396" r="5"/></g>
<circle cx="150" cy="46" r="22" fill="#006847"/>
<text x="150" y="53" text-anchor="middle" font-family="Georgia, serif" font-size="22" font-weight="bold" fill="#f6e7c8">10</text>
<g><rect x="130" y="230" width="40" height="95" fill="#8b5a2b"/>
  <circle cx="150" cy="180" r="70" fill="#2b6f5c"/><circle cx="100" cy="210" r="45" fill="#2b6f5c"/><circle cx="200" cy="210" r="45" fill="#2b6f5c"/>
  <circle cx="150" cy="130" r="45" fill="#2b6f5c"/>
  <g fill="#c8412b"><circle cx="120" cy="170" r="9"/><circle cx="180" cy="150" r="9"/><circle cx="150" cy="210" r="9"/><circle cx="95" cy="225" r="9"/><circle cx="210" cy="230" r="9"/></g>
  <path d="M60 325 h180" stroke="#2b6f5c" stroke-width="6"/></g>
<rect x="24" y="346" width="252" height="44" rx="8" fill="#006847"/>
<rect x="24" y="386" width="252" height="4" rx="2" fill="#ce1126"/>
<text x="150" y="376" text-anchor="middle" font-family="Georgia, serif" font-size="24" font-weight="bold" fill="#f6e7c8">El Árbol</text>
</svg>
