<svg xmlns="http://www.w3.org/2000/svg" viewBox="0 0 300 420" width="300" height="420">
<rect width="300" height="420" rx="14" fill="#f6e7c8"/>
<rect x="8" y="8" width="284" height="404" rx="10" fill="none" stroke="#ce1126" stroke-width="4"/>
<rect x="16" y="16" width="268" height="388" rx="8" fill="none" stroke="#006847" stroke-width="1.5"/>
<g fill="#006847"><circle cx="24" cy="24" r="5"/><circle cx="276" cy="24" r="5"/></g>
<g fill="#ce1126"><circle cx="24" cy="396" r="5"/><circle cx="276" cy="396" r="5"/></g>
<circle cx="150" cy="46" r="22" fill="#006847"/>
<text x="150" y="53" text-anchor="middle" font-family="Georgia, serif" font-size="22" font-weight="bold" fill="#f6e7c8">11</text>
<g><path d="M60 200 a90 90 0 0 0 180 0 z" fill="#e0a526" stroke="#2a2a2a" stroke-width="4"/>
  <path d="M75 200 a75 75 0 0 0 150 0 z" fill="#e58aa0"/>
  <path d="M60 200 h180" stroke="#2a2a2a" stroke-width="4"/>
  <g fill="#2a2a2a"><ellipse cx="120" cy="230" rx="5" ry="8"/><ellipse cx="150" cy="245" rx="5" ry="8"/><ellipse cx="180" cy="230" rx="5" ry="8"/><ellipse cx="135" cy="215" rx="4" ry="6"/><ellipse cx="165" cy="215" rx="4" ry="6"/></g>
  <circle cx="150" cy="130" r="35" fill="#2b6f5c" stroke="#2a2a2a" stroke-width="3"/>
  <path d="M120 120 q30 -20 60 0 M125 140 q25 15 50 0" stroke="#2a2a2a" stroke-width="2" fill="none"/></g>
<rect x="24" y="346" width="252" height="44" rx="8" fill="#006847"/>
<rect x="24" y="386" width="252" height="4" rx="2" fill="#ce1126"/>
<text x="150" y="376" text-anchor="middle" font-family="Georgia, serif" font-size="24" font-weight="bold" fill="#f6e7c8">El Melón</text>
</svg>
