<svg xmlns="http://www.w3.org/2000/svg" viewBox="0 0 300 420" width="300" height="420">
<rect width="300" height="420" rx="14" fill="#f6e7c8"/>
<rect x="8" y="8" width="284" height="404" rx="10" fill="none" stroke="#ce1126" stroke-width="4"/>
<rect x="16" y="16" width="268" height="388" rx="8" fill="none" stroke="#006847" stroke-width="1.5"/>
<g fill="#006847"><circle cx="24" cy="24" r="5"/><circle cx="276" cy="24" r="5"/></g>
<g fill="#ce1126"><circle cx="24" cy="396" r="5"/><circle cx="276" cy="396" r="5"/></g>
<circle cx="150" cy="46" r="22" fill="#006847"/>
<text x="150" y="53" text-anchor="middle" font-family="Georgia, serif" font-size="22" font-weight="bold" fill="#f6e7c8">12</text>
<g><rect x="118" y="230" width="26" height="90" rx="6" fill="#1f3a5f"/><rect x="156" y="230" width="26" height="90" rx="6" fill="#1f3a5f"/><rect x="105" y="165" width="90" height="80" rx="18" fill="#f6e7c8" stroke="#2a2a2a" stroke-width="3"/><rect x="80" y="172" width="24" height="70" rx="12" fill="#f6e7c8" stroke="#2a2a2a" stroke-width="3"/><rect x="196" y="172" width="24" height="70" rx="12" fill="#f6e7c8" stroke="#2a2a2a" stroke-width="3"/><rect x="112" y="312" width="38" height="16" rx="6" fill="#2a2a2a"/><rect x="150" y="312" width="38" height="16" rx="6" fill="#2a2a2a"/><circle cx="150.0" cy="130.0" r="34.0" fill="#e8b98a" stroke="#2a2a2a" stroke-width="3"/><circle cx="138.1" cy="124.9" r="4.1" fill="#2a2a2a"/><circle cx="161.9" cy="124.9" r="4.1" fill="#2a2a2a"/><path d="M138.1 140.2 q11.9 10.2 23.8 0" stroke="#2a2a2a" stroke-width="3" fill="none"/><path d="M100 90 q50 -30 100 0 l-10 -10 h-80 z" fill="#2a2a2a"/>
  <rect x="112" y="60" width="76" height="34" rx="6" fill="#e0a526" stroke="#2a2a2a" stroke-width="3"/>
  <path d="M85 88 q65 22 130 0" stroke="#e0a526" stroke-width="10" fill="none"/>
  <path d="M75 250 l-30 60" stroke="#2a2a2a" stroke-width="7" stroke-linecap="round"/><circle cx="46" cy="308" r="8" fill="#8b5a2b"/>
  <path d="M225 250 l40 -90" stroke="#bbb" stroke-width="8" stroke-linecap="round"/><rect x="216" y="240" width="18" height="18" rx="4" fill="#8b5a2b"/>
  <rect x="110" y="200" width="80" height="14" fill="#c8412b"/></g>
<rect x="24" y="346" width="252" height="44" rx="8" fill="#006847"/>
<rect x="24" y="386" width="252" height="4" rx="2" fill="#ce1126"/>
<text x="150" y="376" text-anchor="middle" font-family="Georgia, serif" font-size="24" font-weight="bold" fill="#f6e7c8">El Valiente</text>
</svg>
