<svg xmlns="http://www.w3.org/2000/svg" viewBox="0 0 300 420" width="300" height="420">
<!-- Lotería Mexicana - ilustración propia. Copyright (C) 2026 Ismael A. Acevedo Rendón.
     Licencia: GNU GPL v3 o posterior. https://www.gnu.org/licenses/gpl-3.0.html -->
<rect width="300" height="420" rx="14" fill="#f6e7c8"/>
<rect x="8" y="8" width="284" height="404" rx="10" fill="none" stroke="#ce1126" stroke-width="4"/>
<rect x="16" y="16" width="268" height="388" rx="8" fill="none" stroke="#006847" stroke-width="1.5"/>
<g fill="#006847"><circle cx="24" cy="24" r="5"/><circle cx="276" cy="24" r="5"/></g>
<g fill="#ce1126"><circle cx="24" cy="396" r="5"/><circle cx="276" cy="396" r="5"/></g>
<circle cx="150" cy="46" r="22" fill="#006847"/>
<text x="150" y="53" text-anchor="middle" font-family="Georgia, serif" font-size="22" font-weight="bold" fill="#f6e7c8">13</text>
<g><path d="M70 250 q80 -190 160 0 z" fill="#e58aa0" stroke="#2a2a2a" stroke-width="4"/>
  <path d="M55 250 h190" stroke="#2a2a2a" stroke-width="10" stroke-linecap="round"/>
  <path d="M100 250 q10 30 -5 60 M200 250 q-10 30 5 60" stroke="#c8412b" stroke-width="6" fill="none" stroke-linecap="round"/>
  <path d="M150 80 q-10 -20 5 -30" stroke="#2a2a2a" stroke-width="4" fill="none"/><circle cx="150" cy="50" r="6" fill="#e0a526"/>
  <g fill="#f6e7c8"><circle cx="150" cy="170" r="10"/><circle cx="110" cy="220" r="8"/><circle cx="190" cy="220" r="8"/><circle cx="130" cy="130" r="6"/></g></g>
<rect x="24" y="346" width="252" height="44" rx="8" fill="#006847"/>
<rect x="24" y="386" width="252" height="4" rx="2" fill="#ce1126"/>
<text x="150" y="376" text-anchor="middle" font-family="Georgia, serif" font-size="24" font-weight="bold" fill="#f6e7c8">El Gorrito</text>
</svg>
