<svg xmlns="http://www.w3.org/2000/svg" viewBox="0 0 300 420" width="300" height="420">
<rect width="300" height="420" rx="14" fill="#f6e7c8"/>
<rect x="8" y="8" width="284" height="404" rx="10" fill="none" stroke="#ce1126" stroke-width="4"/>
<rect x="16" y="16" width="268" height="388" rx="8" fill="none" stroke="#006847" stroke-width="1.5"/>
<g fill="#006847"><circle cx="24" cy="24" r="5"/><circle cx="276" cy="24" r="5"/></g>
<g fill="#ce1126"><circle cx="24" cy="396" r="5"/><circle cx="276" cy="396" r="5"/></g>
<circle cx="150" cy="46" r="22" fill="#006847"/>
<text x="150" y="53" text-anchor="middle" font-family="Georgia, serif" font-size="22" font-weight="bold" fill="#f6e7c8">33</text>
<g><line x1="150" y1="60" x2="150" y2="160" stroke="#2a2a2a" stroke-width="3"/>
  <g stroke="#2a2a2a" stroke-width="6" fill="none" stroke-linecap="round">
   <path d="M120 200 q-40 -30 -60 -70 M120 215 q-50 -10 -80 -30 M120 230 q-50 20 -75 50 M125 245 q-30 40 -35 80"/>
   <path d="M180 200 q40 -30 60 -70 M180 215 q50 -10 80 -30 M180 230 q50 20 75 50 M175 245 q30 40 35 80"/></g>
  <ellipse cx="150" cy="240" rx="45" ry="55" fill="#2a2a2a"/><circle cx="150" cy="175" r="28" fill="#2a2a2a"/>
  <path d="M130 225 q20 -15 40 0 M125 250 q25 -15 50 0 M130 275 q20 -12 40 0" stroke="#c8412b" stroke-width="5" fill="none"/>
  <circle cx="140" cy="168" r="5" fill="#e0a526"/><circle cx="160" cy="168" r="5" fill="#e0a526"/></g>
<rect x="24" y="346" width="252" height="44" rx="8" fill="#006847"/>
<rect x="24" y="386" width="252" height="4" rx="2" fill="#ce1126"/>
<text x="150" y="376" text-anchor="middle" font-family="Georgia, serif" font-size="24" font-weight="bold" fill="#f6e7c8">La Araña</text>
</svg>
