<svg xmlns="http://www.w3.org/2000/svg" viewBox="0 0 300 420" width="300" height="420">
<!-- Lotería Mexicana - ilustración propia. Copyright (C) 2026 Ismael A. Acevedo Rendón.
     Licencia: GNU GPL v3 o posterior. https://www.gnu.org/licenses/gpl-3.0.html -->
<rect width="300" height="420" rx="14" fill="#f6e7c8"/>
<rect x="8" y="8" width="284" height="404" rx="10" fill="none" stroke="#ce1126" stroke-width="4"/>
<rect x="16" y="16" width="268" height="388" rx="8" fill="none" stroke="#006847" stroke-width="1.5"/>
<g fill="#006847"><circle cx="24" cy="24" r="5"/><circle cx="276" cy="24" r="5"/></g>
<g fill="#ce1126"><circle cx="24" cy="396" r="5"/><circle cx="276" cy="396" r="5"/></g>
<circle cx="150" cy="46" r="22" fill="#006847"/>
<text x="150" y="53" text-anchor="middle" font-family="Georgia, serif" font-size="22" font-weight="bold" fill="#f6e7c8">53</text>
<g><g stroke="#e0a526" stroke-width="2"><line x1="120" y1="75" x2="120" y2="302"/><line x1="140" y1="68" x2="140" y2="265"/><line x1="160" y1="68" x2="160" y2="229"/><line x1="180" y1="75" x2="180" y2="192"/><line x1="200" y1="88" x2="200" y2="156"/></g>
  <path d="M85 320 v-225 q65 -70 140 15 l-115 210 z" fill="none" stroke="#8b5a2b" stroke-width="14" stroke-linejoin="round"/>
  <path d="M225 110 l-115 210" stroke="#8b5a2b" stroke-width="26" stroke-linecap="round"/>
  <path d="M85 320 h35" stroke="#8b5a2b" stroke-width="16" stroke-linecap="round"/>
  <circle cx="85" cy="95" r="10" fill="#e0a526" stroke="#2a2a2a" stroke-width="3"/><circle cx="225" cy="110" r="10" fill="#e0a526" stroke="#2a2a2a" stroke-width="3"/>
  <circle cx="85" cy="320" r="8" fill="#e0a526"/></g>
<rect x="24" y="346" width="252" height="44" rx="8" fill="#006847"/>
<rect x="24" y="386" width="252" height="4" rx="2" fill="#ce1126"/>
<text x="150" y="376" text-anchor="middle" font-family="Georgia, serif" font-size="24" font-weight="bold" fill="#f6e7c8">El Arpa</text>
</svg>
